<?xml version="1.0" encoding="UTF-8" standalone="no"?>
<!-- Creator: CorelDRAW X6 -->

<svg
   xmlns:dc="http://purl.org/dc/elements/1.1/"
   xmlns:cc="http://creativecommons.org/ns#"
   xmlns:rdf="http://www.w3.org/1999/02/22-rdf-syntax-ns#"
   xmlns:svg="http://www.w3.org/2000/svg"
   xmlns="http://www.w3.org/2000/svg"
   xmlns:sodipodi="http://sodipodi.sourceforge.net/DTD/sodipodi-0.dtd"
   xmlns:inkscape="http://www.inkscape.org/namespaces/inkscape"
   xml:space="preserve"
   width="450"
   height="450"
   version="1.1"
   style="clip-rule:evenodd;fill-rule:evenodd;image-rendering:optimizeQuality;shape-rendering:geometricPrecision;text-rendering:geometricPrecision"
   viewBox="0 0 12700 12700"
   id="svg3353"
   inkscape:version="0.91 r13725"
   sodipodi:docname="DumbphoneHelper.svg"><metadata
     id="metadata3385"><rdf:RDF><cc:Work
         rdf:about=""><dc:format>image/svg+xml</dc:format><dc:type
           rdf:resource="http://purl.org/dc/dcmitype/StillImage" /><dc:title></dc:title></cc:Work></rdf:RDF></metadata><sodipodi:namedview
     pagecolor="#ffffff"
     bordercolor="#666666"
     borderopacity="1"
     objecttolerance="10"
     gridtolerance="10"
     guidetolerance="10"
     inkscape:pageopacity="0"
     inkscape:pageshadow="2"
     inkscape:window-width="1858"
     inkscape:window-height="1177"
     id="namedview3383"
     showgrid="false"
     units="px"
     inkscape:zoom="0.63429568"
     inkscape:cx="926.82659"
     inkscape:cy="503.59751"
     inkscape:window-x="-8"
     inkscape:window-y="-8"
     inkscape:window-maximized="1"
     inkscape:current-layer="svg3353" /><defs
     id="defs3355"><style
       type="text/css"
       id="style3357"><![CDATA[
    .fil2 {fill:#663800}
    .fil5 {fill:#7D680C}
    .fil6 {fill:#8F7813}
    .fil0 {fill:#9A5400}
    .fil1 {fill:#A8620C}
    .fil7 {fill:#F5CF27}
    .fil8 {fill:#FCDB46}
    .fil10 {fill:#FEE786}
    .fil3 {fill:#4CAD3F}
    .fil4 {fill:#55B049}
    .fil9 {fill:#FEDC5C}
   ]]></style></defs><rect
     style="fill:#ffffff;fill-opacity:1;stroke:#4cad3f;stroke-width:794.06793213;stroke-linecap:butt;stroke-miterlimit:4;stroke-dasharray:none;stroke-opacity:1"
     id="rect4417"
     width="11949.992"
     height="11968.872"
     x="375.0036"
     y="365.56366"
     rx="2246.5229"
     ry="2246.5229" /><g
     id="g3433"
     transform="translate(-1.601511e-4,0.49998985)"><path
       class="fil3"
       d="m 11028.5,4102.4997 0,4494 c 0,205 -167,372 -372,372 l -7924.0003,0 -1060,-1060 0,-3806 c 0,-205 167,-372 372,-372 l 8612.0003,0 c 205,0 372,167 372,372 z"
       id="path3367"
       inkscape:connector-curvature="0"
       style="fill:#4cad3f" /><path
       class="fil4"
       d="m 2201.4997,8438.4997 -530,-530 0,-3806 c 0,-205 167,-372 372,-372 l 8612.0003,0 c 144,0 270,83 332,203 l -8786.0003,4505 z"
       id="path3369"
       inkscape:connector-curvature="0"
       style="fill:#55b049" /><path
       class="fil5"
       d="m 10501.5,4486.4997 c 0,1225 0,2450 0,3675 0,156 -128,284 -284,284 -1225.0003,0 -2450.0003,0 -3675.0003,0 -156,0 -284,-128 -284,-284 0,-1225 0,-2450 0,-3675 0,-156 128,-284 284,-284 1225,0 2450,0 3675.0003,0 156,0 284,128 284,284 z"
       id="path3371"
       inkscape:connector-curvature="0"
       style="fill:#7d680c" /><path
       class="fil6"
       d="m 6259.4997,6358.4997 0,-1871 c 0,-156 128,-284 284,-284 1225,0 2450,0 3675.0003,0 57,0 110,17 155,46 l -4114.0003,2109 z"
       id="path3373"
       inkscape:connector-curvature="0"
       style="fill:#8f7813" /><path
       class="fil7"
       d="m 7568.4997,7382.4997 0,-927 -1202,0 0,927 1202,0 z m 0,956 0,-849 -1202,0 0,672 c 0,97 80,177 177,177 l 1025,0 z m 1624,-849 0,849 1025.0003,0 c 97,0 177,-80 177,-177 l 0,-672 -1202.0003,0 z m 0,-1034 0,927 1202.0003,0 0,-927 -1202.0003,0 z m 0,-1034 0,927 1202.0003,0 0,-927 -1202.0003,0 z m -107,2917 c 0,-1008 0,-2016 0,-3025 l 1309.0003,0 0,-826 c 0,-97 -80,-177 -177,-177 l -2542.0003,0 c 0,1343 0,2685 0,4028 l 1409,0 z m -1517,-3025 0,-1003 -1025,0 c -97,0 -177,80 -177,177 l 0,826 1202,0 z m 0,1034 0,-927 -1202,0 0,927 1202,0 z"
       id="path3375"
       inkscape:connector-curvature="0"
       style="fill:#f5cf27" /><path
       class="fil8"
       d="m 10248.5,4313.4997 -2573.0003,1319 0,-1322 2542.0003,0 c 10,0 21,1 31,3 z m -2680.0003,1374 -1202,616 0,-882 1202,0 0,266 z m 0,-374 0,-1003 -1025,0 c -97,0 -177,80 -177,177 l 0,826 1202,0 z"
       id="path3377"
       inkscape:connector-curvature="0"
       style="fill:#fcdb46" /><polygon
       transform="translate(-4008.5003,-6968.5003)"
       class="fil9"
       points="11913,11287 12870,11287 12870,15288 11913,15288 "
       id="polygon3379"
       style="fill:#fedc5c" /><polygon
       transform="translate(-4008.5003,-6968.5003)"
       class="fil10"
       points="11913,11287 12870,11287 12870,11993 11913,12484 "
       id="polygon3381"
       style="fill:#fee786" /></g></svg>